<svg width="176" height="176" viewBox="0 0 176 176" fill="none" xmlns="http://www.w3.org/2000/svg">
<path d="M148 88C148 72.087 141.679 56.8258 130.426 45.5736C119.174 34.3214 103.913 28 88 28C72.087 28 56.8258 34.3214 45.5736 45.5736C34.3214 56.8258 28 72.087 28 88L58 88C58 80.0435 61.1607 72.4129 66.7868 66.7868C72.4129 61.1607 80.0435 58 88 58C95.9565 58 103.587 61.1607 109.213 66.7868C114.839 72.4129 118 80.0435 118 88H148Z" fill="#1451E1"/>
<path d="M88 148C95.8793 148 103.681 146.448 110.961 143.433C118.241 140.417 124.855 135.998 130.426 130.426C135.998 124.855 140.417 118.241 143.433 110.961C146.448 103.681 148 95.8793 148 88H118C118 91.9397 117.224 95.8407 115.716 99.4805C114.209 103.12 111.999 106.427 109.213 109.213C106.427 111.999 103.12 114.209 99.4805 115.716C95.8407 117.224 91.9397 118 88 118L88 148Z" fill="#70A9FF"/>
<rect x="28" y="88" width="30" height="60" fill="#1451E1"/>
<path d="M104 88C104 83.7565 102.314 79.6869 99.3137 76.6863C96.3131 73.6857 92.2435 72 88 72C83.7565 72 79.6869 73.6857 76.6863 76.6863C73.6857 79.6869 72 83.7565 72 88L88 88H104Z" fill="#70A9FF"/>
<path d="M104 88C104 92.2435 102.314 96.3131 99.3137 99.3137C96.3131 102.314 92.2435 104 88 104C83.7565 104 79.6869 102.314 76.6863 99.3137C73.6857 96.3131 72 92.2435 72 88L88 88H104Z" fill="#1451E1"/>
</svg>
