<svg xmlns="http://www.w3.org/2000/svg" version="1.1" xmlns:xlink="http://www.w3.org/1999/xlink" xmlns:svgjs="http://svgjs.dev/svgjs" width="120" height="120"><svg width="120" height="120" viewBox="0 0 120 120" fill="none" xmlns="http://www.w3.org/2000/svg">
<path d="M120 60C120 44.087 113.679 28.8258 102.426 17.5736C91.1742 6.32141 75.913 1.2014e-06 60 0C44.087 -1.2014e-06 28.8258 6.32141 17.5736 17.5736C6.32141 28.8258 2.4028e-06 44.087 0 60L30 60C30 52.0435 33.1607 44.4129 38.7868 38.7868C44.4129 33.1607 52.0435 30 60 30C67.9565 30 75.5871 33.1607 81.2132 38.7868C86.8393 44.4129 90 52.0435 90 60H120Z" fill="#1451E1"></path>
<path d="M60 120C67.8793 120 75.6815 118.448 82.961 115.433C90.2405 112.417 96.8549 107.998 102.426 102.426C107.998 96.8549 112.417 90.2405 115.433 82.961C118.448 75.6815 120 67.8793 120 60L90 60C90 63.9397 89.224 67.8407 87.7164 71.4805C86.2087 75.1203 83.999 78.4274 81.2132 81.2132C78.4274 83.999 75.1203 86.2087 71.4805 87.7164C67.8407 89.224 63.9397 90 60 90L60 120Z" fill="#70A9FF"></path>
<rect y="60" width="30" height="60" fill="#1451E1"></rect>
<path d="M76 60C76 55.7565 74.3143 51.6869 71.3137 48.6863C68.3131 45.6857 64.2435 44 60 44C55.7565 44 51.6869 45.6857 48.6863 48.6863C45.6857 51.6869 44 55.7565 44 60L60 60H76Z" fill="#70A9FF"></path>
<path d="M76 60C76 64.2435 74.3143 68.3131 71.3137 71.3137C68.3131 74.3143 64.2435 76 60 76C55.7565 76 51.6869 74.3143 48.6863 71.3137C45.6857 68.3131 44 64.2435 44 60L60 60H76Z" fill="#1451E1"></path>
</svg><style>@media (prefers-color-scheme: light) { :root { filter: none; } }
@media (prefers-color-scheme: dark) { :root { filter: none; } }
</style></svg>